<?xml version="1.0" encoding="UTF-8" standalone="no"?><!DOCTYPE svg PUBLIC "-//W3C//DTD SVG 1.1//EN" "http://www.w3.org/Graphics/SVG/1.1/DTD/svg11.dtd"><svg width="100%" height="100%" viewBox="0 0 37 38" version="1.1" xmlns="http://www.w3.org/2000/svg" xmlns:xlink="http://www.w3.org/1999/xlink" xml:space="preserve" style="fill-rule:evenodd;clip-rule:evenodd;stroke-linejoin:round;stroke-miterlimit:1.41421;"><path d="M15.793,1.668c-7.788,0.003 -14.122,6.343 -14.125,14.131c0.003,7.784 6.336,14.117 14.121,14.117c7.791,0 14.13,-6.333 14.13,-14.12c-0.005,-7.791 -6.343,-14.128 -14.126,-14.128Zm-0.004,29.915c-8.702,0 -15.786,-7.081 -15.789,-15.784c0.003,-8.709 7.088,-15.796 15.793,-15.799c8.704,0 15.789,7.085 15.794,15.796c0,8.704 -7.089,15.787 -15.798,15.787Z" style="fill:#8f80b7;fill-opacity:0.8;fill-rule:nonzero;"/><path d="M6.441,15.789l-1.668,0c0.002,-6.076 4.945,-11.017 11.02,-11.017l0,1.667c-5.156,0 -9.35,4.195 -9.352,9.35Z" style="fill:#8f80b7;fill-rule:nonzero;"/><path d="M35.601,37.08c-0.213,0 -0.427,-0.081 -0.59,-0.243l-9.285,-9.285c-0.325,-0.327 -0.325,-0.852 0,-1.181c0.325,-0.325 0.854,-0.325 1.179,0l9.285,9.285c0.327,0.325 0.327,0.856 0,1.181c-0.162,0.162 -0.375,0.243 -0.589,0.243Z" style="fill:#8f80b7;fill-rule:nonzero;"/></svg>